<?xml version="1.0" encoding="UTF-8"?>
<!-- Generator: visioncortex VTracer 0.6.12 -->
<svg version="1.1" xmlns="http://www.w3.org/2000/svg" width="1606" height="622">
<path d="M0 0 C4.4083 2.7703 6.9985 4.6064 8.4805 9.7695 C9.0174 23.5497 1.4807 38.4614 -7.1445 48.7695 C-12.5273 54.3155 -18.289 57.2206 -25.5195 59.7695 C-26.4296 60.1073 -27.3397 60.445 -28.2773 60.793 C-40.1248 64.4721 -54.8818 65.1908 -66.207 59.7695 C-71.2929 56.8118 -75.7314 53.2873 -80.2227 49.5078 C-85.1247 45.7979 -90.102 44.4441 -96.207 44.832 C-100.4791 45.5527 -103.2609 46.8071 -106.5195 49.7695 C-107.9051 52.0464 -109.1155 54.3326 -110.2461 56.7461 C-111.7573 59.1473 -112.8889 59.7887 -115.5195 60.7695 C-121.9519 61.951 -125.7366 59.2021 -130.8594 55.707 C-141.6959 47.8144 -141.6959 47.8144 -143.0195 39.707 C-141.7048 29.3535 -135.0943 20.6212 -127.5195 13.7695 C-112.1366 2.3027 -96.2137 0.389 -77.5195 1.7695 C-69.4057 3.1387 -63.8148 7.5131 -57.4414 12.5078 C-52.3302 16.4642 -47.4099 20.1502 -41.0195 21.5195 C-29.6841 19.0905 -23.5502 10.9195 -17.5195 1.7695 C-12.8059 -3.6983 -6.0867 -2.9726 0 0 Z " fill="#1E3668" transform="translate(389.51953125,6.23046875)"/>
<path d="M0 0 C0.4057 0.0528 0.4057 0.0528 2.4585 0.3198 C16.1566 2.1379 28.2714 5.4505 40.8877 11.0688 C43.7493 12.3303 46.6563 13.4707 49.5625 14.625 C55.2721 17.0307 60.6519 19.8784 66 23 C66.9526 23.5466 67.9052 24.0931 68.8867 24.6562 C75.1208 28.3984 79.6261 32.2185 84 38 C84.7928 38.9745 85.5855 39.9491 86.4023 40.9531 C96.1775 53.3662 100.6122 67.8733 104.0938 83.1055 C104.7117 85.7612 105.3619 88.3659 106.0938 90.9883 C106.1852 91.3243 106.1852 91.3243 106.6477 93.0247 C107.147 94.8518 107.657 96.6761 108.168 98.5 C110.9128 111.0775 110.2366 124.8417 110.5027 137.6631 C110.5607 140.4136 110.6266 143.1638 110.6934 145.9141 C110.8384 152.2756 110.9272 158.6373 111 165 C111.0043 165.3497 111.0043 165.3497 111.0259 167.1193 C111.3239 192.1489 110.6505 216.9875 109.041 241.9649 C108.8714 244.6187 108.7067 247.2728 108.5435 249.9269 C106.3768 285.1634 103.7875 320.3696 100.9793 355.5604 C100.448 362.225 99.9305 368.8893 99.4661 375.5591 C99.3825 376.7311 99.299 377.9031 99.2129 379.1106 C99.063 381.2313 98.9187 383.3525 98.7821 385.4742 C98.0532 395.6462 95.8554 405.4604 93.5786 415.3804 C92.9107 418.4041 92.3587 421.4364 91.8352 424.4878 C87.072 452.193 76.5347 481.5263 58 503 C57.5475 503.5943 57.0951 504.1885 56.6289 504.8008 C47.4986 516.4659 30.482 525.8649 15.9375 528.4375 C13.9605 528.6466 11.981 528.8324 10 529 C8.7522 529.1792 7.5044 529.3584 6.2188 529.543 C-24.3127 533.852 -54.2842 531.0959 -83 520 C-83.8382 519.684 -84.6764 519.368 -85.54 519.0425 C-107.7966 510.5167 -125.0081 495.8339 -135 474 C-137.3298 468.3045 -139.3247 462.4902 -141.1672 456.6204 C-141.7529 454.7775 -142.3703 452.9445 -143.0105 451.1199 C-146.1231 441.8889 -147.2293 432.8227 -148.1875 423.1875 C-148.3524 421.6477 -148.5184 420.108 -148.6855 418.5684 C-148.8474 417.0392 -149.0082 415.5099 -149.168 413.9805 C-149.2029 413.6484 -149.2029 413.6484 -149.3794 411.9681 C-150.64 399.2384 -151.1741 386.4457 -151.5508 373.6641 C-151.5716 372.9664 -151.5924 372.2687 -151.6139 371.5499 C-152.0821 355.5766 -152.1987 339.6061 -152.1889 323.6266 C-152.1875 321.3308 -152.1876 319.0349 -152.1877 316.7391 C-152.1815 297.2705 -151.9793 277.8281 -151.125 258.375 C-151.1054 257.9192 -151.1054 257.9192 -151.0062 255.6125 C-150.5412 245.1893 -149.7562 234.8263 -148.7221 224.4445 C-148.0037 217.2208 -147.5005 209.996 -147.0625 202.75 C-146.3317 191.4989 -145.216 180.3523 -143.7734 169.1719 C-143.2329 164.9786 -142.7647 160.7858 -142.3516 156.5781 C-139.7157 130.2158 -132.5794 105.2817 -125 80 C-124.7216 79.055 -124.4431 78.1101 -124.1562 77.1365 C-120.7854 65.7286 -116.5144 54.7842 -111.5 44 C-111.1447 43.2234 -110.7894 42.4468 -110.4233 41.6467 C-103.5206 27.1215 -92.5675 17.1313 -77.4453 11.7305 C-68.1288 8.612 -58.6365 6.4628 -49.0322 4.4453 C-46.2308 3.8315 -43.4639 3.0924 -40.6875 2.375 C-27.5142 -0.6637 -13.3961 -1.9593 0 0 Z M-57.9961 61.2852 C-69.3325 76.6685 -73.7496 96.4824 -77 115 C-77.2436 116.2736 -77.4873 117.5472 -77.7383 118.8594 C-79.2644 126.9386 -80.4061 135.0233 -81.375 143.1875 C-82.6182 153.6127 -84.2577 163.9417 -86.0208 174.2905 C-87.8415 184.9815 -89.5475 195.6866 -91.1904 206.4062 C-92.1017 212.338 -93.0286 218.2623 -94.0977 224.168 C-96.7843 239.256 -98.0267 254.3333 -99.0493 269.6094 C-99.1065 270.4569 -99.1637 271.3045 -99.2226 272.1777 C-99.3291 273.776 -99.4322 275.3745 -99.5314 276.9732 C-99.7781 280.7374 -100.2588 284.3088 -101 288 C-101.2163 290.6075 -101.396 293.201 -101.5352 295.8125 C-101.5568 296.2029 -101.5568 296.2029 -101.6661 298.1787 C-107.9304 415.179 -107.9304 415.179 -87.7773 440.1523 C-75.8958 452.5039 -57.2114 461.1928 -41 466 C-39.9571 466.3622 -38.9143 466.7245 -37.8398 467.0977 C-20.737 471.1167 -3.4464 468.2383 11.375 459.25 C27.9538 448.5145 33.3713 431.6052 38 413 C38.1373 412.4586 38.1373 412.4586 38.832 409.7188 C39.3258 407.7533 39.8127 405.7861 40.2891 403.8164 C40.8116 401.7465 41.401 399.6932 42.0273 397.6523 C43.2305 393.1346 43.6888 388.6548 44.123 384.0195 C44.625 379.1986 45.4871 374.5299 46.4844 369.7852 C47.9577 362.6903 48.7387 355.6557 49.3125 348.4375 C49.5531 345.6086 49.8041 342.7808 50.0586 339.9531 C50.1277 339.1843 50.1969 338.4155 50.2681 337.6233 C50.8724 331.0665 51.5963 324.5258 52.3477 317.9844 C52.4088 317.4514 52.4088 317.4514 52.7185 314.7543 C52.9737 312.5338 53.229 310.3133 53.4844 308.0928 C56.859 278.6746 59.4658 249.2196 61.7841 219.701 C61.9631 217.4616 62.1526 215.2238 62.3503 212.9861 C63.2342 202.3584 63.2002 191.7198 63.1875 181.0625 C63.1866 180.0513 63.1856 179.0401 63.1847 177.9983 C63.1019 136.6208 61.8349 100.4052 32 69 C17.8145 55.2392 -6.6139 46.5336 -26.4182 46.5662 C-38.3095 46.8766 -50.1267 52.2762 -57.9961 61.2852 Z " fill="#1E3668" transform="translate(617,75)"/>
<path d="M0 0 C32.783 -0.9684 71.2987 8.4752 97.1772 30.1138 C125.8461 57.383 130.5694 100.3334 131.5592 137.8507 C131.6231 140.4591 131.6825 143.0677 131.7397 145.6763 C131.7599 146.5891 131.7801 147.5018 131.8009 148.4423 C131.9233 154.1021 132.0321 159.762 132.1304 165.4222 C132.1606 167.158 132.1918 168.8938 132.2241 170.6295 C132.5768 189.7763 132.1205 208.6452 130.4578 227.7246 C129.5438 238.3845 128.8841 249.0442 128.3804 259.731 C128.348 260.4155 128.3157 261.1001 128.2824 261.8054 C127.99 268.0323 127.7071 274.2597 127.4393 280.4878 C126.331 306.2058 126.331 306.2058 124.9469 317.2863 C124.1318 323.9724 123.6818 330.6707 123.2476 337.3911 C123.1698 338.5785 123.0921 339.7659 123.012 340.9893 C122.6932 345.8967 122.3786 350.8042 122.0781 355.7126 C120.6286 379.1862 117.7609 402.3017 112.8022 425.3013 C112.6552 425.9927 112.5081 426.6841 112.3566 427.3965 C110.4146 436.4723 108.2016 445.2423 104.5366 453.7974 C103.4231 456.514 102.5918 459.0831 101.8022 461.8989 C100.2289 467.2775 97.9731 472.1331 95.4272 477.1138 C94.9833 477.9895 94.5394 478.8653 94.082 479.7676 C90.9042 485.9336 87.4838 491.6615 83.1772 497.1138 C82.8653 497.5314 82.8653 497.5314 81.2866 499.645 C67.2826 517.9494 48.3569 526.6806 25.8647 529.7388 C-1.9985 533.3847 -35.3608 533.3649 -60.9363 520.0574 C-63.5705 518.7398 -66.2973 517.7798 -69.0728 516.8013 C-75.7953 514.2667 -81.7674 510.9575 -87.8228 507.1138 C-88.1624 506.903 -88.1624 506.903 -89.8813 505.8364 C-110.8043 491.9965 -119.7727 463.2573 -124.8228 440.1138 C-127.2278 427.4988 -128.7322 414.8018 -129.3579 401.9771 C-129.401 401.0959 -129.4441 400.2148 -129.4886 399.3069 C-129.6279 396.347 -129.7584 393.3868 -129.8853 390.4263 C-129.9298 389.3891 -129.9743 388.3519 -130.0202 387.2832 C-130.9118 365.5911 -131.0162 343.9051 -131.0108 322.1978 C-131.0103 319.5689 -131.0114 316.9401 -131.0127 314.3112 C-131.0137 310.1012 -131.0079 305.8913 -130.9966 301.6813 C-130.9928 300.1272 -130.9903 298.5732 -130.9893 297.0191 C-130.9799 287.6607 -130.6654 278.371 -130.0641 269.0321 C-129.74 263.7694 -129.5726 258.5089 -129.4282 253.2388 C-128.7026 229.6856 -127.4397 206.5618 -124.2085 183.2222 C-123.7073 179.1835 -123.5036 175.1784 -123.3853 171.1138 C-121.9644 135.6299 -112.0499 99.2791 -99.8228 66.1138 C-99.409 64.9381 -98.9952 63.7625 -98.5688 62.5513 C-92.2423 45.1794 -82.9598 23.4834 -65.3228 15.1763 C-55.2388 10.98 -44.391 8.6782 -33.8096 6.0972 C-31.3266 5.4897 -28.8462 4.8722 -26.3657 4.2544 C-17.5349 2.0788 -9.1085 0.3671 0 0 Z M-37.2095 61.9419 C-46.7471 74.7819 -51.0607 91.6219 -54.2251 107.0278 C-54.4388 108.0631 -54.6526 109.0984 -54.8728 110.165 C-57.3551 122.4234 -59.3186 134.7605 -61.2603 147.1138 C-61.6515 149.5762 -62.043 152.0386 -62.4348 154.501 C-64.9684 170.4717 -67.4328 186.4528 -69.7952 202.4497 C-69.9011 203.1667 -70.0071 203.8838 -70.1162 204.6226 C-70.3303 206.0758 -70.5432 207.5293 -70.7549 208.9829 C-71.3902 213.3152 -72.069 217.6377 -72.7844 221.9575 C-75.3165 237.4313 -76.9754 252.8724 -78.2058 268.5015 C-78.5112 272.3757 -78.8309 276.2486 -79.1528 280.1216 C-81.1616 304.6258 -82.0579 328.9648 -82.0728 353.5513 C-82.0741 354.8703 -82.0754 356.1893 -82.0768 357.5483 C-82.0916 423.6965 -82.0916 423.6965 -64.647 442.3521 C-47.6583 458.7587 -22.2507 468.1502 1.0366 469.3052 C15.2899 469.0496 30.2525 462.6636 40.5718 452.8325 C45.5425 447.6289 48.8 442.8655 51.1772 436.1138 C51.6362 434.9008 52.0951 433.6878 52.5679 432.438 C67.5979 392.1032 70.5613 348.4912 74.4658 305.9712 C74.6419 304.0567 74.819 302.1423 74.9971 300.228 C75.1489 298.5922 75.2981 296.9562 75.4434 295.3198 C75.8678 290.7227 76.4528 286.1718 77.1108 281.6021 C78.6321 270.3827 79.3424 259.0883 80.1772 247.8013 C80.5068 243.3674 80.8401 238.9338 81.1772 234.5005 C81.2585 233.4173 81.3397 232.3341 81.4234 231.2181 C81.8311 225.9412 82.3228 220.7014 83.0167 215.4548 C84.7247 202.3735 84.4762 189.225 84.4312 176.055 C84.4272 174.0507 84.4311 172.0465 84.438 170.0422 C84.496 151.8295 84.3018 134.1457 79.9272 116.3638 C79.8188 115.921 79.8188 115.921 79.27 113.6802 C75.9965 100.9215 70.1112 90.5721 62.1772 80.1138 C61.9704 79.835 61.9704 79.835 60.9233 78.4243 C47.6014 60.682 26.8139 50.9562 5.1772 47.1138 C-11.1634 45.6671 -25.7804 49.6127 -37.2095 61.9419 Z " fill="#1E3668" transform="translate(1469.82275390625,74.88623046875)"/>
<path d="M0 0 C2.2551 0.014 4.5102 0.0272 6.7654 0.0398 C12.4029 0.0772 18.0399 0.1377 23.6771 0.2097 C26.7142 0.248 29.7514 0.281 32.7886 0.313 C37.1994 0.3623 41.6095 0.4302 46.0197 0.5165 C47.6107 0.5468 49.2017 0.5732 50.7928 0.5953 C62.5143 0.7729 71.9441 2.1513 82.125 8.125 C82.6948 8.4537 82.6948 8.4537 85.5781 10.1172 C106.5838 23.7062 112.7057 50.3647 117.7336 73.3606 C118.4962 76.9818 119.2502 80.6022 119.875 84.25 C119.9622 84.7465 119.9622 84.7465 120.4033 87.2588 C121.6192 95.9794 121.1815 104.9784 121.2251 113.7629 C121.2416 116.2038 121.2689 118.6446 121.3071 121.0852 C121.3623 124.6339 121.3838 128.1814 121.3984 131.7305 C121.4211 132.8059 121.4438 133.8813 121.4671 134.9893 C121.424 150.7064 112.3805 163.4154 102.875 175.25 C101.7916 176.6875 100.7083 178.125 99.625 179.5625 C83.3058 200.4351 63.467 214.5941 36.668 217.9927 C31.1007 218.5955 25.5214 219.023 19.9375 219.4375 C18.0474 219.5888 16.1574 219.7418 14.2676 219.8965 C13.338 219.9725 12.4085 220.0485 11.4508 220.1267 C10.5299 220.2022 9.609 220.2777 8.6602 220.3555 C7.7534 220.4294 6.8465 220.5034 5.9123 220.5796 C3.2329 220.7995 0.5538 221.0235 -2.125 221.25 C-3.005 221.324 -3.8851 221.398 -4.7918 221.4742 C-7.3017 221.6925 -9.809 221.9307 -12.3164 222.1758 C-13.0648 222.239 -13.8132 222.3023 -14.5842 222.3675 C-17.442 222.6631 -19.6497 222.9249 -22.0505 224.5671 C-23.9918 227.6077 -24.25 230.7279 -24.2508 234.2727 C-24.2521 234.6705 -24.2521 234.6705 -24.2587 236.6836 C-24.2565 237.5518 -24.2543 238.4201 -24.252 239.3147 C-24.2535 240.2418 -24.2551 241.1689 -24.2567 242.1241 C-24.2607 245.2388 -24.2575 248.3535 -24.2544 251.4683 C-24.2557 253.6991 -24.2575 255.93 -24.2597 258.1609 C-24.2643 264.2322 -24.2625 270.3035 -24.2593 276.3748 C-24.2568 282.7413 -24.2591 289.1079 -24.2607 295.4744 C-24.2627 306.8729 -24.2595 318.2714 -24.2545 329.6699 C-24.25 339.9611 -24.2507 350.2523 -24.2554 360.5435 C-24.2608 372.5174 -24.2627 384.4913 -24.2598 396.4652 C-24.2582 402.7938 -24.258 409.1225 -24.2613 415.4511 C-24.2642 421.4216 -24.2621 427.392 -24.2564 433.3625 C-24.2551 435.5366 -24.2554 437.7108 -24.2577 439.885 C-24.2694 452.4344 -24.0122 464.93 -23.3625 477.4635 C-23.0146 484.1826 -22.8684 490.8971 -22.8125 497.625 C-22.7835 498.8419 -22.7545 500.0587 -22.7246 501.3125 C-22.6698 509.0541 -23.1424 515.1947 -28.7424 520.897 C-32.172 522.8446 -35.6206 522.9707 -39.4766 523.2344 C-40.2906 523.2991 -41.1047 523.3638 -41.9435 523.4305 C-43.6661 523.5644 -45.3892 523.6917 -47.1128 523.813 C-49.7213 523.998 -52.3271 524.2062 -54.9336 524.418 C-76.6552 526.1023 -76.6552 526.1023 -82.125 522 C-85.2798 517.6621 -86.369 514.0963 -86.4419 508.7566 C-86.4613 507.6518 -86.4808 506.547 -86.5009 505.4088 C-86.512 504.1935 -86.5232 502.9782 -86.5347 501.7261 C-86.5537 500.4206 -86.5728 499.1152 -86.5925 497.7702 C-86.6447 494.1059 -86.6832 490.4416 -86.7186 486.7772 C-86.7424 484.4048 -86.7697 482.0326 -86.7981 479.6603 C-87.3476 433.2722 -87.2761 386.8786 -87.2536 340.488 C-87.2498 331.8897 -87.2511 323.2916 -87.2554 314.6934 C-87.2787 265.3371 -87.2469 215.9801 -86.853 166.6251 C-86.8203 162.5122 -86.7932 158.3992 -86.7717 154.2862 C-86.6574 133.3493 -86.1546 112.5059 -84.7192 91.6138 C-84.6886 91.1654 -84.6886 91.1654 -84.5337 88.8961 C-83.6817 76.677 -82.4461 64.5296 -80.9375 52.375 C-79.6255 41.7687 -78.6907 31.4236 -79.1848 20.7271 C-79.3175 17.2765 -79.2626 14.6749 -78.1914 11.3672 C-72.2135 5.2423 -62.0761 5.4839 -54.0625 4.75 C-46.845 4.073 -39.8489 3.2213 -32.7617 1.6719 C-21.9443 -0.5449 -10.9897 -0.1145 0 0 Z M-22.9375 55.1875 C-25.5214 59.6753 -25.2711 64.268 -25.2578 69.3281 C-25.2591 70.1227 -25.2605 70.9173 -25.2618 71.736 C-25.2637 74.324 -25.2574 76.912 -25.25 79.5 C-25.2491 80.386 -25.2482 81.272 -25.2473 82.1849 C-25.2343 93.2267 -25.0767 104.232 -24.4788 115.2598 C-24.1805 121.2194 -24.0986 127.1557 -24.1289 133.1211 C-24.1324 133.8949 -24.136 134.6687 -24.1396 135.466 C-24.1605 139.3219 -24.1962 143.177 -24.25 147.0325 C-24.2619 148.4435 -24.2737 149.8546 -24.2852 151.2656 C-24.302 152.5163 -24.3188 153.7671 -24.3362 155.0557 C-24.1352 158.0953 -23.8288 159.7605 -22.125 162.25 C-12.1835 166.7058 -0.5804 163.7883 9.5376 161.7163 C12.0452 161.2161 14.5581 160.7561 17.0742 160.3008 C18.8412 159.9717 20.6081 159.6422 22.375 159.3125 C23.1991 159.1672 24.0232 159.0218 24.8723 158.8721 C32.3731 157.4338 38.649 154.783 44.375 149.625 C45.0453 149.0346 45.7156 148.4442 46.4062 147.8359 C47.875 146.25 47.875 146.25 47.875 144.25 C48.535 144.25 49.195 144.25 49.875 144.25 C51.0078 142.0662 52.1312 139.8784 53.25 137.6875 C53.4086 137.383 53.4086 137.383 54.2109 135.8418 C58.6155 127.1703 59.4599 118.8663 59.875 109.25 C59.9291 108.0473 59.9833 106.8446 60.0391 105.6055 C60.268 95.8321 58.8989 86.761 56.875 77.25 C56.6352 76.0847 56.3955 74.9194 56.1484 73.7188 C54.8851 68.1101 53.5668 63.7856 49.875 59.25 C49.4664 58.6545 49.0577 58.0589 48.6367 57.4453 C44.6108 51.9792 40.4162 50.5208 33.875 49.25 C29.2177 48.7896 24.5761 48.5881 19.9004 48.4866 C17.7737 48.438 15.6492 48.3622 13.5234 48.2832 C-15.6306 47.3766 -15.6306 47.3766 -22.9375 55.1875 Z " fill="#1E3668" transform="translate(90.125,80.75)"/>
<path d="M0 0 C1.1032 -0.0028 2.2063 -0.0057 3.3429 -0.0086 C9.1594 -0.0234 14.9759 -0.0327 20.7925 -0.0371 C26.7867 -0.0426 32.7806 -0.0668 38.7747 -0.0951 C43.4055 -0.1137 48.0363 -0.1189 52.6671 -0.1204 C54.8783 -0.1235 57.0895 -0.1315 59.3006 -0.1446 C62.3824 -0.1617 65.4636 -0.1598 68.5454 -0.1533 C68.9989 -0.1579 68.9989 -0.1579 71.2941 -0.1812 C76.4017 -0.1475 79.9027 0.379 84.3359 3.2031 C89.019 8.0535 89.752 14.8726 90.75 21.293 C91.0094 22.9048 91.2689 24.5166 91.5283 26.1284 C91.6608 26.9631 91.7933 27.7979 91.9298 28.6579 C92.4627 31.9977 93.0142 35.3344 93.5657 38.6712 C94.2862 43.0351 94.9986 47.4004 95.7109 51.7656 C95.8618 52.6899 96.0126 53.6142 96.1681 54.5665 C98.8392 70.9563 101.3783 87.3626 103.823 103.7876 C104.3189 107.0894 104.8297 110.3885 105.3438 113.6875 C109.0533 137.8643 110.7497 161.4913 111.087 185.9406 C111.0939 186.4403 111.0939 186.4403 111.1289 188.9688 C111.1426 189.9718 111.1563 190.9749 111.1703 192.0083 C111.3396 203.2479 111.7774 214.4738 112.2734 225.7031 C112.2947 226.1898 112.2947 226.1898 112.4023 228.6526 C112.91 240.0803 113.4471 251.502 114.7263 262.875 C115.261 267.8459 115.3529 272.7465 115.3047 277.7422 C115.2135 289.2752 116.0076 300.7591 116.7109 312.2656 C116.8492 314.5954 116.9871 316.9251 117.1245 319.2549 C117.7755 330.2344 118.4505 341.2121 119.1865 352.1863 C119.9043 363.2261 120.5108 374.258 120.8516 385.3164 C120.8722 385.9788 120.8928 386.6412 120.914 387.3236 C121.4745 405.6424 121.6873 423.9676 121.8936 442.2932 C121.9493 447.2261 122.0131 452.1589 122.0787 457.0918 C122.1289 460.9463 122.1739 464.8008 122.2176 468.6554 C122.2389 470.4762 122.2621 472.2969 122.287 474.1176 C122.3212 476.646 122.3482 479.1744 122.3735 481.7029 C122.3849 482.4338 122.3963 483.1646 122.408 483.9177 C122.5281 498.9096 122.5281 498.9096 117.3359 505.2031 C114.1788 506.7817 110.8001 506.3495 107.3359 506.3281 C106.5387 506.324 105.7414 506.3199 104.9199 506.3157 C75.6879 506.0491 75.6879 506.0491 69.3359 502.2031 C61.0789 492.9196 62.3845 474.2267 61.3359 462.5156 C61.006 458.8656 60.6727 455.2158 60.3359 451.5664 C60.2951 451.122 60.2951 451.122 60.0883 448.8733 C59.5808 443.4707 58.9755 438.091 58.2695 432.7109 C57.365 425.7362 56.8246 418.7836 56.3984 411.7656 C55.831 403.1588 55.0922 394.6286 53.9609 386.0781 C51.9557 370.7892 50.9342 355.4025 49.7817 340.0308 C48.4486 322.4549 48.4486 322.4549 47.3047 314.5 C46.086 306.0054 45.6005 297.4824 45.0742 288.9229 C44.1411 273.818 43.0085 258.7801 41.3228 243.7397 C40.461 235.9218 39.9056 228.1375 39.7144 220.2734 C39.5867 216.2042 39.415 212.7634 37.3359 209.2031 C34.4876 207.4429 32.343 206.9542 29.0195 206.9727 C28.6008 206.9732 28.6008 206.9732 26.4819 206.9761 C25.5881 206.9891 24.6943 207.0022 23.7734 207.0156 C22.8461 207.0235 21.9188 207.0314 20.9634 207.0396 C-5.3687 207.3572 -5.3687 207.3572 -17.6641 210.2031 C-19.5516 215.9441 -20.1901 221.3755 -20.6016 227.3906 C-20.6809 228.473 -20.7603 229.5554 -20.842 230.6707 C-21.8122 244.4303 -22.5284 258.2071 -23.2942 271.9792 C-24.0171 284.9405 -24.8179 297.8772 -25.9778 310.8068 C-29.5183 350.4258 -30.4972 390.3332 -31.8516 430.0781 C-31.8944 431.3305 -31.9371 432.5828 -31.9812 433.8731 C-32.1009 437.4179 -32.2174 440.9628 -32.332 444.5078 C-32.3662 445.5352 -32.4005 446.5625 -32.4357 447.621 C-32.6146 453.3322 -32.6625 459.0129 -32.517 464.7259 C-32.7678 468.9518 -34.147 472.8044 -36.6641 476.2031 C-41.0597 479.7676 -45.2222 481.1261 -50.7266 481.9531 C-51.4952 482.0738 -52.2638 482.1945 -53.0557 482.3188 C-59.3332 483.2069 -65.578 483.518 -71.9141 483.5781 C-72.7946 483.592 -73.6751 483.6058 -74.5823 483.6201 C-79.6459 483.5831 -83.3746 483.1797 -87.6641 480.2031 C-91.0148 475.9413 -91.087 471.9615 -91.0364 466.7456 C-91.04 465.9038 -91.0437 465.0619 -91.0474 464.1946 C-91.0556 461.403 -91.0419 458.6119 -91.0273 455.8203 C-91.0268 453.8486 -91.0273 451.877 -91.0289 449.9053 C-91.0288 445.7508 -91.0183 441.5964 -91.0002 437.4419 C-90.978 432.2281 -90.9771 427.0147 -90.9835 421.8009 C-91.0173 385.1176 -89.493 348.7624 -84.9807 312.3342 C-83.5666 300.7432 -82.369 289.1299 -81.1641 277.5156 C-81.0544 276.4609 -80.9448 275.4061 -80.8319 274.3194 C-79.8121 264.4954 -78.7969 254.6713 -77.8516 244.8398 C-77.6226 242.4609 -77.3934 240.082 -77.1641 237.7031 C-77.0525 236.5433 -76.9409 235.3835 -76.8259 234.1885 C-76.1689 227.5831 -75.3958 221.0038 -74.5117 214.4258 C-71.5498 192.2638 -69.5289 170.1549 -68.0959 147.8381 C-67.3223 135.9962 -66.2807 124.2632 -64.7306 112.4962 C-63.6847 104.5535 -62.9728 96.6284 -62.3516 88.6406 C-60.3683 64.9782 -57.1645 41.1678 -51.5391 18.0781 C-51.4245 17.6018 -51.4245 17.6018 -50.8445 15.1912 C-49.5849 10.3944 -48.3777 6.6991 -44.6641 3.2031 C-32.4514 -2.8153 -13.3056 0.0232 0 0 Z M10.7109 61.3281 C9.4399 61.5576 8.1689 61.787 6.8594 62.0234 C2.7177 63.4101 0.9672 64.7316 -1.6641 68.2031 C-2.7031 71.4258 -2.7031 71.4258 -3.2891 75.2656 C-3.4011 75.9897 -3.5132 76.7137 -3.6287 77.4597 C-6.1106 94.2787 -7.6045 111.2544 -8.8516 128.2031 C-8.9354 129.3289 -9.0193 130.4546 -9.1057 131.6145 C-10.5095 151.935 -10.5095 151.935 -7.6641 156.2031 C-0.4981 159.2349 9.1377 156.6261 16.4609 155.3906 C17.5193 155.225 18.5776 155.0593 19.668 154.8887 C30.1518 153.1458 30.1518 153.1458 34.3359 150.2031 C36.1411 146.6037 36.5921 143.6519 36.6016 139.6523 C36.6057 138.5732 36.6098 137.494 36.614 136.3821 C36.6047 135.2299 36.5955 134.0777 36.5859 132.8906 C36.5799 131.6953 36.5739 130.4999 36.5676 129.2683 C36.3799 112.0326 35.0447 95.0496 31.3359 78.2031 C31.0871 76.9746 30.8384 75.7462 30.582 74.4805 C28.3656 64.0017 28.3656 64.0017 25.3359 61.2031 C20.197 59.8902 15.8764 60.3287 10.7109 61.3281 Z " fill="#1E3668" transform="translate(311.6640625,93.796875)"/>
<path d="M0 0 C4.1149 5.5216 4.9664 11.9526 5.75 18.625 C5.8692 19.5963 5.9885 20.5676 6.1113 21.5684 C7.6781 35.0426 7.3698 45.2859 2 58 C1.4153 59.4239 0.832 60.8484 0.25 62.2734 C-0.6284 64.4198 -1.5103 66.5639 -2.4124 68.7004 C-6.5917 78.6269 -10.0056 88.8302 -13.4094 99.043 C-14.062 100.9985 -14.7194 102.9524 -15.377 104.9062 C-17.5635 111.4382 -19.5909 117.9756 -21.3494 124.6362 C-22.2323 127.8438 -23.3408 130.9453 -24.5 134.0625 C-25.9658 138.0598 -27.3231 142.0168 -28.4375 146.125 C-29.5061 149.8203 -30.9645 153.0314 -32.75 156.4375 C-35.7256 162.1845 -37.94 168.0338 -40.1189 174.1108 C-42.5368 180.8233 -45.1408 187.4473 -47.8125 194.0625 C-51.3391 202.8009 -54.7699 211.5694 -58.125 220.375 C-61.0081 227.9396 -63.9849 235.4401 -67.1875 242.875 C-70.5433 250.694 -73.4136 258.6225 -76.1641 266.6719 C-77.78 271.398 -79.476 276.092 -81.1863 280.7847 C-84.7828 290.6535 -88.2078 300.5652 -91.4831 310.5444 C-94.5606 319.9206 -97.6921 329.204 -101.5938 338.2739 C-103.9301 343.7128 -105.916 349.2403 -107.7842 354.8567 C-109.7878 360.7604 -112.369 366.3528 -115 372 C-115.8836 373.9202 -116.7664 375.8408 -117.6484 377.7617 C-118.0926 378.7266 -118.5368 379.6914 -118.9944 380.6855 C-126.0894 396.1127 -132.894 411.6134 -139.3616 427.3145 C-141.7692 433.1383 -144.3046 438.856 -147.0776 444.5164 C-148.0758 447.2041 -148.253 449.1563 -148 452 C-147 453 -147 453 -143.9109 453.1135 C-142.504 453.1134 -141.0971 453.1076 -139.6902 453.0977 C-138.9211 453.0962 -138.1521 453.0948 -137.3597 453.0933 C-135.6757 453.0895 -133.9916 453.0834 -132.3076 453.0753 C-129.6085 453.0624 -126.9094 453.0553 -124.2103 453.0498 C-120.3646 453.0414 -116.519 453.0307 -112.6734 453.018 C-102.7849 452.9867 -92.8964 452.9767 -83.0078 452.9727 C-82.0393 452.9722 -81.0709 452.9718 -80.073 452.9714 C-64.7322 452.968 -49.3995 453.0651 -34.0625 453.4375 C-33.1923 453.4572 -32.3222 453.477 -31.4256 453.4973 C-11.8786 453.9563 -11.8786 453.9563 -7.1875 456.5625 C-1.3193 463.1014 -2.6669 473.4046 -2.6875 481.625 C-2.6714 482.9218 -2.6553 484.2186 -2.6387 485.5547 C-2.638 486.8077 -2.6374 488.0606 -2.6367 489.3516 C-2.6337 490.4842 -2.6308 491.6168 -2.6277 492.7837 C-3.0549 496.474 -4.0578 498.8458 -6 502 C-10.6993 505.3094 -14.7363 506.678 -20.4375 507.6875 C-21.1314 507.8107 -21.8253 507.9339 -22.5403 508.0608 C-27.2554 508.848 -31.9078 509.2229 -36.6875 509.4375 C-41.9173 509.6733 -46.7823 510.2813 -51.8955 511.3831 C-65.0556 514.2099 -78.1441 515.1005 -91.5625 515.75 C-92.7247 515.8104 -93.8868 515.8707 -95.0842 515.933 C-111.4075 516.7764 -127.7172 517.2857 -144.0625 517.3125 C-144.9314 517.3161 -145.8003 517.3197 -146.6956 517.3234 C-157.0778 517.3467 -167.3002 516.8487 -177.6255 515.7341 C-184.3645 515.0075 -191.0833 514.6433 -197.8601 514.5193 C-202.4091 514.3606 -205.4597 513.9357 -209 511 C-212.3123 506.7028 -213.5629 503.5804 -214.0469 498.1953 C-214.1698 496.8967 -214.2928 495.5982 -214.4194 494.2603 C-214.5309 492.8819 -214.641 491.5035 -214.75 490.125 C-214.8715 488.7166 -214.9934 487.3082 -215.1157 485.8999 C-216.5634 468.7113 -217.3388 456.0958 -208.2603 440.9297 C-205.2557 435.7736 -203.0272 430.4336 -200.875 424.875 C-197.956 417.3457 -194.805 410.1332 -191 403 C-189.3928 399.9808 -187.7889 396.9598 -186.1875 393.9375 C-185.9723 393.532 -185.9723 393.532 -184.8833 391.4802 C-181.5269 385.111 -178.4265 378.6458 -175.3931 372.1179 C-172.7911 366.5593 -169.9783 361.1493 -167.0625 355.75 C-159.0231 340.7556 -152.5055 325.0846 -147 309 C-142.9129 297.5466 -138.5344 286.2233 -133.9883 274.9453 C-132.0271 270.0784 -130.0971 265.1999 -128.1875 260.3125 C-127.9097 259.6067 -127.6319 258.9008 -127.3457 258.1736 C-126.0037 254.7292 -124.7474 251.2775 -123.6069 247.761 C-122.1427 243.3425 -120.4748 239.0313 -118.7461 234.7109 C-114.5044 223.9517 -110.8546 213.0067 -107.2004 202.0371 C-103.6708 191.463 -99.9389 181.0309 -95.7051 170.7156 C-93.308 164.8695 -91.2773 158.9866 -89.3477 152.9688 C-88.0455 149.0185 -86.527 145.1621 -85.0076 141.2913 C-81.7512 132.9872 -79.0411 124.93 -77.043 116.2305 C-75.8607 111.223 -74.2895 106.3444 -72.75 101.4375 C-69.9955 92.5546 -67.4676 83.6243 -65.1063 74.6299 C-64.7473 73.2651 -64.385 71.9012 -64.0192 70.5383 C-62.159 63.5881 -60.4798 57.2184 -61 50 C-65.8564 46.1716 -71.1297 46.2242 -77.0625 45.8125 C-78.0973 45.7335 -79.1321 45.6546 -80.1982 45.5732 C-98.0547 44.2749 -98.0547 44.2749 -105.821 46.0122 C-112.5046 47.2644 -119.1143 47.1977 -125.884 47.0892 C-128.1697 47.0538 -130.4551 47.0336 -132.741 47.0174 C-139.2322 46.969 -145.7229 46.8978 -152.2136 46.8081 C-156.2074 46.754 -160.201 46.7203 -164.1951 46.6984 C-165.6992 46.6861 -167.2032 46.6663 -168.7071 46.6382 C-177.6898 46.4718 -185.4322 47.2333 -194.0236 50.0752 C-198.4142 51.4394 -201.4405 51.7237 -206 51 C-210.3654 47.6563 -211.2765 44.7118 -212.25 39.375 C-212.528 37.2535 -212.7776 35.1281 -213 33 C-213.1109 31.9907 -213.2217 30.9813 -213.3359 29.9414 C-215.2431 10.1224 -215.2431 10.1224 -211 3 C-203.9193 -1.4392 -193.7993 -0.0906 -185.7812 0.0781 C-183.504 0.1095 -181.2267 0.1387 -178.9495 0.166 C-177.7408 0.1806 -176.5322 0.1952 -175.2869 0.2102 C-145.4967 0.5233 -115.941 -0.9698 -86.2288 -3.0431 C-11.6256 -8.2467 -11.6256 -8.2467 0 0 Z " fill="#1E3668" transform="translate(970,100)"/>
<path d="M0 0 C10.8047 -0.5094 10.8047 -0.5094 13.5127 1.2656 C16.6399 5.893 17.0048 10.6199 16.9177 16.0715 C16.9099 16.7412 16.902 17.4108 16.8939 18.1007 C16.8654 20.3122 16.822 22.5231 16.7783 24.7344 C16.7546 26.3058 16.7317 27.8773 16.7097 29.4488 C16.6487 33.6038 16.5749 37.7584 16.4987 41.9131 C16.4405 45.2021 16.3917 48.4912 16.3434 51.7804 C16.1172 67.1365 15.8118 82.4857 15.2921 97.8348 C14.7456 114.0325 14.6782 130.2074 14.7483 146.4131 C14.7816 154.2468 14.7928 162.0804 14.7979 169.9141 C14.7984 170.6941 14.7989 171.4741 14.7995 172.2778 C14.8052 187.105 14.5963 201.9223 14.2666 216.7461 C14.2199 218.8779 14.1732 221.0098 14.1265 223.1416 C14.1041 224.1588 14.0818 225.1761 14.0588 226.2242 C14.048 226.7183 14.048 226.7183 13.9932 229.2188 C13.9826 229.6973 13.9826 229.6973 13.9292 232.1189 C13.5241 250.941 13.688 269.7405 14.2041 288.5586 C14.2237 289.2832 14.2432 290.0078 14.2634 290.7544 C14.3218 292.8546 14.3851 294.9547 14.4502 297.0547 C14.4869 298.2515 14.5235 299.4483 14.5613 300.6814 C14.7116 304.4962 14.9842 308.2991 15.2532 312.1072 C15.803 320.2034 16.0876 328.2989 16.2979 336.4102 C16.3184 337.1706 16.3389 337.931 16.3601 338.7145 C16.9181 359.5461 17.0933 380.3829 17.2927 401.2203 C17.353 407.5076 17.4172 413.7948 17.4854 420.082 C17.4945 420.9475 17.5036 421.813 17.513 422.7048 C17.6501 435.3241 17.9427 447.9276 18.5078 460.5356 C19.93 495.1436 19.93 495.1436 11.7666 505.1211 C4.9288 509.2652 -5.4562 508.2855 -13.2217 508.3242 C-14.1279 508.3299 -15.0341 508.3356 -15.9678 508.3415 C-17.8644 508.3509 -19.7609 508.3574 -21.6575 508.3613 C-24.5561 508.3711 -27.4541 508.4023 -30.3525 508.4336 C-32.2047 508.4401 -34.057 508.4454 -35.9092 508.4492 C-36.3399 508.4554 -36.3399 508.4554 -38.5199 508.4866 C-43.1823 508.4693 -46.6275 508.4053 -50.2334 505.1211 C-53.1887 499.5445 -53.6501 495.0972 -53.5571 488.8528 C-53.5553 487.9167 -53.5535 486.9807 -53.5517 486.0163 C-53.5412 482.8179 -53.5084 479.6201 -53.4756 476.4219 C-53.4623 474.0655 -53.4501 471.7092 -53.4389 469.3529 C-53.4053 463.2542 -53.3549 457.1559 -53.2974 451.0574 C-53.2441 445.3784 -53.197 439.6995 -53.1525 434.0204 C-52.9852 412.8808 -52.784 391.7417 -52.5547 370.6027 C-52.5327 368.578 -52.5107 366.5533 -52.4888 364.5286 C-52.4779 363.5236 -52.467 362.5187 -52.4557 361.4834 C-52.3675 353.289 -52.2876 345.0946 -52.2094 336.9001 C-52.1321 328.8416 -52.0482 320.7832 -51.9596 312.7248 C-51.9076 307.9766 -51.8579 303.2284 -51.8153 298.4801 C-51.5761 272.229 -50.5419 246.1835 -48.439 220.0086 C-48.0949 215.1766 -47.9659 210.3417 -47.8389 205.5 C-47.7726 203.2698 -47.7055 201.0397 -47.6377 198.8096 C-47.6203 198.2295 -47.6203 198.2295 -47.532 195.2941 C-46.7862 171.053 -45.3436 146.9302 -43.4369 122.7553 C-43.3943 122.2149 -43.3943 122.2149 -43.1787 119.4805 C-43.0948 118.4198 -43.011 117.3591 -42.9245 116.2663 C-42.1097 105.8185 -41.5283 95.3633 -40.9951 84.8979 C-40.5243 75.6965 -39.8869 66.5438 -38.9038 57.3818 C-38.3621 51.9269 -38.156 46.5071 -38.0967 41.0273 C-38.0914 40.671 -38.0914 40.671 -38.0646 38.8677 C-38.0123 35.3294 -37.9871 31.7954 -38.0144 28.2568 C-37.9137 19.7668 -36.8047 13.7258 -31.2334 7.1211 C-23.0575 -0.3043 -10.4342 0.5657 0 0 Z " fill="#1E3668" transform="translate(1056.2333984375,96.87890625)"/>
<path d="M0 0 C0.7046 -0.0019 1.4091 -0.0038 2.135 -0.0058 C4.4594 -0.0095 6.7834 0.0012 9.1077 0.0125 C10.7266 0.0136 12.3456 0.0141 13.9646 0.0138 C17.3565 0.0154 20.7483 0.0237 24.1401 0.0371 C28.4823 0.0541 32.8244 0.0579 37.1666 0.0572 C40.5098 0.0574 43.853 0.0629 47.1962 0.0702 C48.7969 0.0733 50.3976 0.0753 51.9984 0.0761 C54.2386 0.0782 56.4786 0.087 58.7188 0.0977 C59.3556 0.0996 59.3556 0.0996 62.5784 0.1092 C65.5067 0.2262 68.0738 0.6204 70.9241 1.2429 C73.8129 1.3693 76.6827 1.4515 79.5725 1.489 C81.3062 1.5204 83.04 1.5522 84.7737 1.5842 C85.225 1.5919 85.225 1.5919 87.5088 1.6308 C108.8693 2.0107 129.7845 3.5303 150.981 6.2073 C157.112 6.9665 163.1902 7.489 169.3616 7.7429 C175.9771 8.0343 182.9981 8.444 188.5569 12.407 C192.4618 17.6507 192.2836 24.4757 192.4866 30.7429 C192.6937 36.3217 193.1043 41.7127 193.9241 47.2429 C194.0809 49.4481 194.1865 51.6577 194.2366 53.8679 C194.2553 54.4106 194.2553 54.4106 194.3499 57.157 C193.8214 60.987 192.6379 62.5338 189.9241 65.2429 C183.5911 69.3693 175.661 67.2632 168.7366 65.8054 C158.2325 63.6217 147.62 63.4579 136.9241 63.2429 C136.521 63.2346 136.521 63.2346 134.4812 63.1926 C122.6948 62.986 122.6948 62.986 118.9241 64.2429 C117.3832 67.3247 117.8532 70.5425 117.9182 73.9189 C117.9294 74.7164 117.9406 75.5139 117.9521 76.3355 C117.9772 78.0811 118.0046 79.8266 118.0339 81.5721 C118.0809 84.3768 118.1215 87.1816 118.1603 89.9865 C118.2161 94.0007 118.2739 98.0148 118.3333 102.0289 C118.7843 132.8497 119.152 163.6407 118.3303 194.458 C117.7764 215.6096 117.8584 236.7592 117.9153 257.9164 C117.9241 261.2697 117.9317 264.623 117.939 267.9763 C117.9692 280.9041 118.0229 293.8316 118.108 306.7591 C118.1473 312.7892 118.1797 318.8192 118.1951 324.8494 C118.2778 355.2543 119.3776 385.2914 122.2336 415.5669 C123.3516 427.5645 124.0769 439.5604 124.092 451.614 C124.0954 452.5873 124.0987 453.5605 124.1021 454.5632 C124.1071 456.5853 124.1095 458.6073 124.1094 460.6294 C124.1116 463.7006 124.1299 466.7714 124.1487 469.8425 C124.1516 471.8289 124.1536 473.8152 124.1545 475.8015 C124.1617 476.7028 124.1689 477.604 124.1763 478.5326 C124.1227 493.6153 124.1227 493.6153 119.3616 499.3054 C107.5376 505.9698 86.1822 503.3078 73.1936 500.9734 C69.1432 499.6697 66.6166 498.3367 64.3047 494.6853 C62.5959 490.4248 62.4659 486.9069 62.4475 482.364 C62.4319 481.5155 62.4164 480.667 62.4003 479.7927 C62.353 477.0886 62.3252 474.3848 62.2991 471.6804 C62.2622 469.0012 62.2211 466.3222 62.1764 463.6431 C62.1499 461.9823 62.1283 460.3214 62.1129 458.6605 C62.0535 454.1416 61.811 449.681 61.4214 445.178 C60.7822 437.2758 60.7599 429.3947 60.7561 421.4734 C60.7529 419.8647 60.7495 418.256 60.746 416.6473 C60.7401 413.2813 60.7382 409.9153 60.7388 406.5493 C60.7388 403.1707 60.732 399.7922 60.7183 396.4136 C60.6526 380.07 60.6651 363.8113 61.8967 347.5046 C63.6212 324.0656 63.3843 300.536 63.514 277.046 C63.5409 272.1962 63.5716 267.3465 63.6047 262.4968 C64.4397 139.6737 64.4397 139.6737 63.4866 96.2429 C63.467 95.3433 63.4475 94.4437 63.4273 93.5168 C62.8743 69.4704 62.8743 69.4704 60.5894 66.5188 C57.8034 64.3843 54.5549 64.6996 51.1741 64.6179 C50.3415 64.5856 49.5089 64.5533 48.6511 64.52 C43.0482 64.3193 37.4429 64.2086 31.8378 64.0904 C29.2464 64.0353 26.6551 63.9773 24.0637 63.9192 C20.5957 63.8416 17.1278 63.778 13.6594 63.7229 C-7.9472 63.3197 -7.9472 63.3197 -12.6384 58.7429 C-14.6798 55.1927 -15.2336 53.1897 -15.3923 49.0984 C-15.4347 48.0384 -15.4771 46.9784 -15.5208 45.8862 C-15.6814 41.1694 -15.837 36.4527 -15.9719 31.7351 C-16.0384 29.503 -16.1134 27.2712 -16.1995 25.0398 C-16.3087 22.1701 -16.3847 19.3014 -16.4509 16.4304 C-16.489 15.5728 -16.5271 14.7152 -16.5664 13.8315 C-16.625 9.5253 -16.5134 7.8104 -13.8025 4.2937 C-8.9892 0.6734 -6.0983 -0.0068 0 0 Z " fill="#1E3668" transform="translate(1120.075927734375,101.757080078125)"/>
</svg>
